<svg width="282" height="282" viewBox="0 0 282 282" fill="none" xmlns="http://www.w3.org/2000/svg">
<g clip-path="url(#clip0_108_23)">
<path d="M141 0C218.595 0 282 59.0381 282 141C282 222.962 218.595 282 141 282C63.4045 282 0 222.962 0 141C0 59.0381 63.4045 0 141 0ZM141 262.624C207.861 262.624 262.169 211.773 262.169 141C262.169 70.2271 207.861 19.3761 141 19.3761C74.1387 19.3761 19.831 70.3181 19.831 141C19.831 211.682 74.1387 262.624 141 262.624ZM141 56.0361C188.03 56.0361 214.775 84.9639 217.777 127.173L194.944 128.446C193.215 98.7 174.658 77.5955 141.91 77.5955C109.161 77.5955 86.6923 101.702 86.6923 141.455C86.6923 181.208 109.07 204.859 141.91 204.859C174.749 204.859 193.215 183.755 194.944 154.008L217.777 155.737C214.775 197.946 188.03 226.874 141 226.874C93.9697 226.874 60.4026 191.942 60.4026 141.546C60.4026 91.1497 95.789 56.1271 141 56.1271V56.0361Z" fill="black"/>
</g>
<defs>
<clipPath id="clip0_108_23">
<rect width="282" height="282" fill="white"/>
</clipPath>
</defs>
</svg>
